<svg xmlns="http://www.w3.org/2000/svg" viewBox="0 0 128 128" width="128" height="128">
  <defs>
    <linearGradient id="paper" x1="0" y1="0" x2="0.4" y2="1">
      <stop offset="0" stop-color="#FFEC9A"/>
      <stop offset="0.55" stop-color="#FFE27A"/>
      <stop offset="1" stop-color="#F8D45E"/>
    </linearGradient>
  </defs>
  <!-- 影 -->
  <path d="M34 18 H84 L116 50 V96 A20 20 0 0 1 96 116 H34 A20 20 0 0 1 14 96 V38 A20 20 0 0 1 34 18 Z"
        fill="#5C4A1E" opacity="0.16"/>
  <!-- 付箋本体（右上を折った形）-->
  <path d="M34 14 H84 L114 44 V92 A20 20 0 0 1 94 112 H34 A20 20 0 0 1 14 92 V34 A20 20 0 0 1 34 14 Z"
        fill="url(#paper)"/>
  <!-- 折れ角（裏面）-->
  <path d="M84 14 L84 44 L114 44 Z" fill="#EFC23E"/>
  <path d="M84 14 L114 44 L84 44 Z" fill="#E3B636" opacity="0.55"/>
  <!-- ＋ -->
  <g fill="#5C4A1E">
    <rect x="33" y="60" width="54" height="14" rx="7"/>
    <rect x="53" y="40" width="14" height="54" rx="7"/>
  </g>
</svg>
